<svg xmlns="http://www.w3.org/2000/svg" width="202.843" height="60.764" viewBox="0 0 202.843 60.764">
  <g id="Group_1" data-name="Group 1" transform="translate(-196.742 -264.673)">
    <path id="Path_1" data-name="Path 1" d="M224.133,348.909a3.614,3.614,0,1,1,0,7.228,20.348,20.348,0,1,1,14.8-34.3,3.605,3.605,0,1,1-5.251,4.941,13.124,13.124,0,1,0-9.545,22.131" transform="translate(-7.044 -30.699)" fill="#58595b"/>
    <path id="Path_2" data-name="Path 2" d="M294.459,267.031l.824,2.246a4.007,4.007,0,0,0,2.414,2.441l2.336.886-2.247.824a4,4,0,0,0-2.441,2.414l-.886,2.336-.825-2.247a4,4,0,0,0-2.414-2.441l-2.335-.886,2.246-.825a4,4,0,0,0,2.441-2.413Zm10.892,5.288.444,1.211a4.006,4.006,0,0,0,2.414,2.44l1.279.485-1.21.444a4.005,4.005,0,0,0-2.442,2.415l-.484,1.277-.445-1.21a4,4,0,0,0-2.414-2.44l-1.278-.485,1.211-.444a4,4,0,0,0,2.44-2.413Zm-2.523-7.646.074.2a4,4,0,0,0,2.413,2.44l.248.094-.2.074a4,4,0,0,0-2.441,2.414l-.094.248-.074-.2a4,4,0,0,0-2.414-2.44l-.247-.094.2-.074a4,4,0,0,0,2.44-2.413ZM257.1,280.557a3.6,3.6,0,1,1-5.082-5.11,24.576,24.576,0,0,1,39.667,7.3,21.336,21.336,0,1,1,2.523,42.522H267.632a3.614,3.614,0,0,1,0-7.228h26.574a14.115,14.115,0,1,0,0-28.229c-.181,0-.357,0-.527.008a24.8,24.8,0,0,1,.191,3.073,3.614,3.614,0,0,1-7.228,0A17.345,17.345,0,0,0,257.1,280.557Z" transform="translate(-35.564 0)" fill="#62a2d3"/>
    <g id="Group_404" data-name="Group 404" transform="translate(94.28 -148.603)">
      <g id="Group_402" data-name="Group 402" transform="translate(194.173 457.372)">
        <path id="Path_134" data-name="Path 134" d="M311.058,484.963q-.044-.133-.088-.265c-.03-.089-.069-.157-.088-.215a1.277,1.277,0,0,0-.118-.167,1.448,1.448,0,0,0-.156-.186,1.8,1.8,0,0,0-1.3-.441,1.907,1.907,0,0,0-1.558.676,2.189,2.189,0,0,0-.421.793,3.947,3.947,0,0,0-.137,1.077,2.775,2.775,0,0,0,.558,1.822,1.937,1.937,0,0,0,1.548.666,2.134,2.134,0,0,0,.9-.186,1.84,1.84,0,0,0,.676-.558c.059-.088.108-.176.167-.274a2.151,2.151,0,0,0,.118-.274,2.667,2.667,0,0,0,.088-.794h-1.969V486h2.665v3.272h-.47l-.216-.823a3.3,3.3,0,0,1-.94.774,2.544,2.544,0,0,1-1.078.206,2.662,2.662,0,0,1-2.086-.863,3.337,3.337,0,0,1-.784-2.312,4.2,4.2,0,0,1,.206-1.352,3.289,3.289,0,0,1,.6-1.039,2.665,2.665,0,0,1,.951-.656,3.005,3.005,0,0,1,1.205-.236,2.482,2.482,0,0,1,1.959.755,2.617,2.617,0,0,1,.372.549c.039.089.078.186.118.3s.069.245.1.383Z" transform="translate(-252.509 -482.974)" fill="#546163"/>
        <path id="Path_135" data-name="Path 135" d="M322.779,486.721h.715v2.88a2.7,2.7,0,0,0,.01.294c.01.078.02.147.029.206a.838.838,0,0,0,.049.166.52.52,0,0,0,.069.147.853.853,0,0,0,.774.323,1.166,1.166,0,0,0,.989-.509,1.432,1.432,0,0,0,.206-.47,4.417,4.417,0,0,0,.049-.735v-2.3h.715v4.507h-.656v-.686l-.069-.01a1.478,1.478,0,0,1-1.43.833,1.411,1.411,0,0,1-1.176-.5,1.608,1.608,0,0,1-.206-.49,3.037,3.037,0,0,1-.069-.725Z" transform="translate(-260.983 -484.908)" fill="#546163"/>
        <rect id="Rectangle_73" data-name="Rectangle 73" width="0.705" height="6.251" transform="translate(67.615 0.088)" fill="#546163"/>
        <path id="Path_136" data-name="Path 136" d="M340.462,489.448v-3.919h-.745v-.519h.745V484.3c0-.725.323-1.087.979-1.087a1.346,1.346,0,0,1,.187.01,3.117,3.117,0,0,1,.333.039v.6a2.05,2.05,0,0,0-.294-.029.476.476,0,0,0-.412.166,1.126,1.126,0,0,0-.108.588v.421h.813v.519h-.813v3.919Z" transform="translate(-269.727 -483.099)" fill="#546163"/>
        <path id="Path_137" data-name="Path 137" d="M195.036,489.643v-6.211h.99l2,5.31c.324-.872.637-1.763.97-2.655s.647-1.783.97-2.655h.99v6.211h-.686v-5.016l-.078-.01c-.3.833-.617,1.675-.911,2.508s-.608,1.676-.921,2.518h-.647l-1.92-5.035-.078.019v5.016Z" transform="translate(-195.036 -483.21)" fill="#546163"/>
        <path id="Path_138" data-name="Path 138" d="M214.4,489c-.03,0-.059.01-.1.01a.961.961,0,0,0-.108.02l-.206.029a1.207,1.207,0,0,0-.2.039c-.088.01-.186.03-.294.049s-.215.039-.342.069a1.827,1.827,0,0,0-.764.3.651.651,0,0,0-.235.539.67.67,0,0,0,.235.549.949.949,0,0,0,.637.2,1.485,1.485,0,0,0,.97-.323,1.27,1.27,0,0,0,.3-.363.889.889,0,0,0,.1-.421Zm-2.822-.862a1.877,1.877,0,0,1,.049-.461c.02-.059.049-.118.078-.186s.078-.127.118-.186a1.433,1.433,0,0,1,.617-.48,2.422,2.422,0,0,1,.941-.157,1.751,1.751,0,0,1,1.5.538,1.412,1.412,0,0,1,.216.872v2.2c0,.343.108.519.313.519a.291.291,0,0,0,.1-.019c.039,0,.069-.01.1-.01v.538a.493.493,0,0,1-.137.039l-.118.03c-.03,0-.059.01-.1.01h-.1c-.411,0-.647-.255-.705-.755a2.113,2.113,0,0,1-1.607.794,1.535,1.535,0,0,1-1.058-.353,1.262,1.262,0,0,1-.392-.979,1.2,1.2,0,0,1,.744-1.186,1.987,1.987,0,0,1,.3-.118c.118-.029.255-.068.412-.1s.313-.06.49-.089.372-.059.578-.078l.49-.069v-.254a1.676,1.676,0,0,0-.03-.353.533.533,0,0,0-.107-.225.825.825,0,0,0-.363-.245,1.465,1.465,0,0,0-.529-.088,1.365,1.365,0,0,0-.559.1.871.871,0,0,0-.362.275.58.58,0,0,0-.108.206,1.5,1.5,0,0,0-.039.265Z" transform="translate(-203.478 -484.883)" fill="#546163"/>
        <path id="Path_139" data-name="Path 139" d="M222.85,485.713h.6v-1.127h.706v1.127h.764v.578h-.764v2.841a.786.786,0,0,0,.107.48.578.578,0,0,0,.441.137.424.424,0,0,0,.108-.01h.107v.588h-.1c-.069.01-.147.01-.225.019s-.147.01-.225.01c-.46,0-.735-.167-.842-.48a1.1,1.1,0,0,1-.059-.3c-.01-.137-.02-.294-.02-.5v-2.783h-.6Z" transform="translate(-209.395 -483.806)" fill="#546163"/>
        <path id="Path_140" data-name="Path 140" d="M230.221,485.713h.6v-1.127h.705v1.127h.764v.578h-.764v2.841a.785.785,0,0,0,.108.48.576.576,0,0,0,.441.137.423.423,0,0,0,.108-.01h.108v.588h-.1c-.069.01-.147.01-.225.019s-.147.01-.225.01c-.461,0-.735-.167-.842-.48a1.1,1.1,0,0,1-.059-.3c-.01-.137-.02-.294-.02-.5v-2.783h-.6Z" transform="translate(-213.2 -483.806)" fill="#546163"/>
        <path id="Path_141" data-name="Path 141" d="M238.483,486.779h.715v.735l.069.019c.3-.588.666-.882,1.1-.882h.127a1.555,1.555,0,0,1,.176.03v.774l-.216-.019a1.149,1.149,0,0,0-1.009.49,2.3,2.3,0,0,0-.118.206,2.055,2.055,0,0,0-.069.235,1.907,1.907,0,0,0-.039.294c-.01.118-.01.245-.01.392V491.3h-.725Z" transform="translate(-217.465 -484.872)" fill="#546163"/>
        <path id="Path_142" data-name="Path 142" d="M249.368,488.651a1.218,1.218,0,0,0-1.283-1.332c-.754,0-1.205.441-1.323,1.332Zm.715.627h-3.341a1.72,1.72,0,0,0,.343,1.146,1.459,1.459,0,0,0,1.773.167,1.143,1.143,0,0,0,.4-.7h.754a2.188,2.188,0,0,1-.686,1.136,1.955,1.955,0,0,1-1.283.412,1.911,1.911,0,0,1-1.509-.637,2.612,2.612,0,0,1-.549-1.754,2.809,2.809,0,0,1,.186-1.068,2.22,2.22,0,0,1,.529-.784,2.358,2.358,0,0,1,.646-.372,2.193,2.193,0,0,1,.764-.137,2.065,2.065,0,0,1,.9.2,1.9,1.9,0,0,1,.676.539,2.109,2.109,0,0,1,.3.656,3.233,3.233,0,0,1,.1.872Z" transform="translate(-221.34 -484.893)" fill="#546163"/>
        <path id="Path_143" data-name="Path 143" d="M258.7,489.886a1.346,1.346,0,0,0,.01.216c.01.059.019.107.029.147a.34.34,0,0,0,.059.137,1.08,1.08,0,0,0,.1.128,1.174,1.174,0,0,0,.872.294,1.313,1.313,0,0,0,.745-.186.811.811,0,0,0,.225-.226.59.59,0,0,0,.068-.293.462.462,0,0,0-.1-.294,1.349,1.349,0,0,0-.4-.255c-.245-.068-.48-.147-.715-.216s-.48-.157-.715-.225a1.189,1.189,0,0,1-.784-1.137,1.115,1.115,0,0,1,.46-.93,1.865,1.865,0,0,1,1.225-.372,1.667,1.667,0,0,1,1.45.637c.029.059.068.118.088.166a1.193,1.193,0,0,1,.118.578h-.725a.66.66,0,0,0-.157-.46,1.118,1.118,0,0,0-.813-.294.939.939,0,0,0-.343.049,1.641,1.641,0,0,0-.3.118.53.53,0,0,0-.265.441.57.57,0,0,0,.421.569c.225.068.451.147.676.206s.45.137.676.215v-.01a.8.8,0,0,0,.157.069c.059.029.117.049.166.078a.166.166,0,0,1,.049.019.41.41,0,0,0,.069.039v.01a.966.966,0,0,1,.519.892,1.3,1.3,0,0,1-.431.989,1.914,1.914,0,0,1-1.371.451,2.038,2.038,0,0,1-1.333-.392,1.5,1.5,0,0,1-.47-1.156Z" transform="translate(-227.518 -484.883)" fill="#546163"/>
        <path id="Path_144" data-name="Path 144" d="M269.69,489.886a1.409,1.409,0,0,0,.01.216c.01.059.02.107.03.147a.34.34,0,0,0,.059.137,1.08,1.08,0,0,0,.1.128,1.172,1.172,0,0,0,.872.294,1.314,1.314,0,0,0,.745-.186.816.816,0,0,0,.225-.226.586.586,0,0,0,.069-.293.462.462,0,0,0-.1-.294,1.338,1.338,0,0,0-.4-.255c-.245-.068-.48-.147-.715-.216s-.48-.157-.715-.225a1.189,1.189,0,0,1-.784-1.137,1.115,1.115,0,0,1,.46-.93,1.865,1.865,0,0,1,1.225-.372,1.667,1.667,0,0,1,1.45.637c.029.059.068.118.088.166a1.289,1.289,0,0,1,.068.177,1.342,1.342,0,0,1,.049.4H271.7a.662.662,0,0,0-.156-.46,1.118,1.118,0,0,0-.813-.294.939.939,0,0,0-.343.049,1.634,1.634,0,0,0-.3.118.531.531,0,0,0-.264.441.57.57,0,0,0,.421.569c.225.068.451.147.676.206s.45.137.676.215v-.01a.783.783,0,0,0,.157.069c.059.029.118.049.166.078a.167.167,0,0,1,.049.019.408.408,0,0,0,.069.039v.01a.966.966,0,0,1,.519.892,1.3,1.3,0,0,1-.431.989,1.914,1.914,0,0,1-1.371.451,2.038,2.038,0,0,1-1.333-.392,1.5,1.5,0,0,1-.47-1.156Z" transform="translate(-233.191 -484.883)" fill="#546163"/>
        <path id="Path_145" data-name="Path 145" d="M283.313,488.651a1.218,1.218,0,0,0-1.283-1.332c-.755,0-1.205.441-1.323,1.332Zm.715.627h-3.341a1.722,1.722,0,0,0,.343,1.146,1.459,1.459,0,0,0,1.773.167,1.143,1.143,0,0,0,.4-.7h.754a2.188,2.188,0,0,1-.686,1.136,1.956,1.956,0,0,1-1.283.412,1.911,1.911,0,0,1-1.509-.637,2.612,2.612,0,0,1-.549-1.754,2.808,2.808,0,0,1,.186-1.068,2.224,2.224,0,0,1,.529-.784,2.368,2.368,0,0,1,.647-.372,2.193,2.193,0,0,1,.764-.137,2.065,2.065,0,0,1,.9.2,1.9,1.9,0,0,1,.676.539,2.11,2.11,0,0,1,.3.656,3.233,3.233,0,0,1,.1.872Z" transform="translate(-238.864 -484.893)" fill="#546163"/>
        <path id="Path_146" data-name="Path 146" d="M292.645,489.886a1.342,1.342,0,0,0,.01.216c.01.059.019.107.03.147a.339.339,0,0,0,.059.137,1.039,1.039,0,0,0,.1.128,1.172,1.172,0,0,0,.872.294,1.313,1.313,0,0,0,.745-.186.811.811,0,0,0,.225-.226.591.591,0,0,0,.069-.293.462.462,0,0,0-.1-.294,1.348,1.348,0,0,0-.4-.255c-.245-.068-.48-.147-.715-.216s-.48-.157-.715-.225a1.189,1.189,0,0,1-.784-1.137,1.114,1.114,0,0,1,.461-.93,1.864,1.864,0,0,1,1.224-.372,1.666,1.666,0,0,1,1.45.637c.029.059.068.118.088.166a1.364,1.364,0,0,1,.069.177,1.343,1.343,0,0,1,.049.4h-.725a.66.66,0,0,0-.157-.46,1.117,1.117,0,0,0-.813-.294.938.938,0,0,0-.343.049,1.642,1.642,0,0,0-.3.118.53.53,0,0,0-.265.441.57.57,0,0,0,.421.569c.225.068.45.147.676.206s.45.137.676.215v-.01a.783.783,0,0,0,.157.069c.059.029.118.049.166.078a.165.165,0,0,1,.049.019.429.429,0,0,0,.069.039v.01a.966.966,0,0,1,.52.892,1.3,1.3,0,0,1-.431.989,1.914,1.914,0,0,1-1.371.451,2.036,2.036,0,0,1-1.332-.392,1.5,1.5,0,0,1-.47-1.156Z" transform="translate(-245.042 -484.883)" fill="#546163"/>
        <path id="Path_147" data-name="Path 147" d="M353.453,483.238h4.458v.7h-3.664v1.94h3.39v.705h-3.39v2.861h-.794Z" transform="translate(-276.818 -483.11)" fill="#546163"/>
        <path id="Path_148" data-name="Path 148" d="M369.272,488.81c-.03,0-.059.01-.1.01a.958.958,0,0,0-.107.02l-.206.029a1.211,1.211,0,0,0-.2.039c-.089.01-.186.03-.294.049s-.216.039-.343.069a1.83,1.83,0,0,0-.764.3.651.651,0,0,0-.235.539.67.67,0,0,0,.235.549.95.95,0,0,0,.637.2,1.484,1.484,0,0,0,.97-.323,1.265,1.265,0,0,0,.3-.362.887.887,0,0,0,.1-.421Zm-2.822-.862a1.9,1.9,0,0,1,.049-.461c.02-.059.049-.118.078-.186s.078-.127.118-.186a1.431,1.431,0,0,1,.617-.48,2.422,2.422,0,0,1,.941-.157,1.751,1.751,0,0,1,1.5.538,1.412,1.412,0,0,1,.215.872v2.2c0,.343.108.519.314.519a.292.292,0,0,0,.1-.019c.039,0,.069-.01.1-.01v.539a.507.507,0,0,1-.137.039l-.118.03c-.03,0-.059.01-.1.01h-.1c-.411,0-.646-.255-.705-.755a2.113,2.113,0,0,1-1.607.794,1.532,1.532,0,0,1-1.058-.353,1.263,1.263,0,0,1-.391-.979,1.2,1.2,0,0,1,.744-1.186,2.093,2.093,0,0,1,.3-.118c.118-.029.255-.068.412-.1s.313-.059.49-.089.372-.059.578-.078l.491-.069v-.254a1.673,1.673,0,0,0-.03-.353.532.532,0,0,0-.107-.225.825.825,0,0,0-.363-.245,1.475,1.475,0,0,0-.529-.088,1.373,1.373,0,0,0-.559.1.871.871,0,0,0-.362.275.586.586,0,0,0-.108.206,1.5,1.5,0,0,0-.039.265Z" transform="translate(-283.432 -484.783)" fill="#546163"/>
        <path id="Path_149" data-name="Path 149" d="M382.038,489.564a2.8,2.8,0,0,1-.137.549,1.613,1.613,0,0,1-.216.431,1.68,1.68,0,0,1-.646.529,1.979,1.979,0,0,1-.852.177,2.316,2.316,0,0,1-.882-.157,1.872,1.872,0,0,1-.666-.451,1.9,1.9,0,0,1-.4-.734,2.966,2.966,0,0,1-.147-.97,2.752,2.752,0,0,1,.549-1.822,1.911,1.911,0,0,1,1.528-.637,1.849,1.849,0,0,1,1.294.441,1.7,1.7,0,0,1,.382.519,2.285,2.285,0,0,1,.2.676H381.3a1.1,1.1,0,0,0-1.137-1,1.289,1.289,0,0,0-.558.118,1.1,1.1,0,0,0-.411.333,1.659,1.659,0,0,0-.255.529,2.691,2.691,0,0,0-.088.715,2.241,2.241,0,0,0,.343,1.342,1.127,1.127,0,0,0,.979.47c.568,0,.941-.353,1.127-1.058Z" transform="translate(-289.537 -484.783)" fill="#546163"/>
        <path id="Path_150" data-name="Path 150" d="M388.714,485.519h.6v-1.127h.705v1.127h.764v.578h-.764v2.841a.784.784,0,0,0,.108.48.578.578,0,0,0,.441.137.421.421,0,0,0,.107-.01h.108v.588h-.1c-.069.01-.147.01-.225.019s-.147.01-.225.01c-.46,0-.735-.167-.842-.48a1.106,1.106,0,0,1-.059-.3c-.01-.137-.02-.294-.02-.5V486.1h-.6Z" transform="translate(-295.022 -483.706)" fill="#546163"/>
        <path id="Path_151" data-name="Path 151" d="M397.213,488.859a2.185,2.185,0,0,0,.333,1.294,1.14,1.14,0,0,0,.95.46,1.1,1.1,0,0,0,.951-.46,2.22,2.22,0,0,0,.333-1.323,2.78,2.78,0,0,0-.088-.725,1.706,1.706,0,0,0-.245-.539,1.089,1.089,0,0,0-.4-.333,1.245,1.245,0,0,0-.549-.118,1.215,1.215,0,0,0-.548.118,1.027,1.027,0,0,0-.4.342,1.621,1.621,0,0,0-.245.539,2.918,2.918,0,0,0-.088.745m-.764-.01a2.555,2.555,0,0,1,.549-1.734,2.082,2.082,0,0,1,3,0,2.521,2.521,0,0,1,.549,1.734,2.6,2.6,0,0,1-.549,1.763,2.1,2.1,0,0,1-3,0A2.621,2.621,0,0,1,396.449,488.849Z" transform="translate(-299.015 -484.783)" fill="#546163"/>
        <path id="Path_152" data-name="Path 152" d="M408.944,486.585h.715v.735l.069.019c.3-.588.666-.882,1.1-.882h.127a1.537,1.537,0,0,1,.177.03v.774l-.216-.019a1.149,1.149,0,0,0-1.009.49,2.232,2.232,0,0,0-.118.206,2.277,2.277,0,0,0-.069.235,2.026,2.026,0,0,0-.039.294c-.009.118-.009.245-.009.392v2.254h-.725Z" transform="translate(-305.465 -484.772)" fill="#546163"/>
        <path id="Path_153" data-name="Path 153" d="M416.767,486.721l1.264,3.742c.2-.607.4-1.235.617-1.871s.422-1.264.627-1.871h.774l-1.842,5.075a3.954,3.954,0,0,1-.274.676,2.5,2.5,0,0,1-.294.412.847.847,0,0,1-.617.265l-.323-.029h-.127a.36.36,0,0,1-.059-.01.541.541,0,0,1-.068-.03.077.077,0,0,1-.049-.02v-.637h.01a.03.03,0,0,1,.019.01,1.4,1.4,0,0,0,.2.049.6.6,0,0,0,.177.02.574.574,0,0,0,.48-.216,3.783,3.783,0,0,0,.372-.9c-.284-.784-.568-1.558-.843-2.332s-.568-1.558-.842-2.332Z" transform="translate(-309.089 -484.908)" fill="#546163"/>
      </g>
      <g id="Group_403" data-name="Group 403" transform="translate(193.364 433.381)">
        <path id="Path_154" data-name="Path 154" d="M391.514,446.7a3.131,3.131,0,0,0-4.613,0,3.8,3.8,0,0,0,0,5.126,3.131,3.131,0,0,0,4.613,0,3.8,3.8,0,0,0,0-5.126m-2.307-4.472a6.6,6.6,0,0,1,4.806,2.095,7.227,7.227,0,0,1,0,9.881,6.561,6.561,0,0,1-9.612,0,7.227,7.227,0,0,1,0-9.881A6.6,6.6,0,0,1,389.207,442.226Z" transform="translate(-290.978 -437.947)" fill="#62a3d4"/>
        <path id="Path_155" data-name="Path 155" d="M205.307,437.37a24.231,24.231,0,0,0-3.238-.49,8.652,8.652,0,0,0-3.865.387,2.06,2.06,0,0,0-1.3,1.419,3.12,3.12,0,0,0-.079.517,2.462,2.462,0,0,0,0,.382,1,1,0,0,0,.374.77,3.352,3.352,0,0,0,1.713.482,10.166,10.166,0,0,0,1.547-.015,12.653,12.653,0,0,1,1.822-.019h.007A6.42,6.42,0,0,1,205.846,442a4.673,4.673,0,0,1,1.807,3.509,7.148,7.148,0,0,1,0,1.034,6.227,6.227,0,0,1-.134.938h0a5.007,5.007,0,0,1-3.189,3.669,12.121,12.121,0,0,1-5.359.63,31.792,31.792,0,0,1-4-.558,1.152,1.152,0,0,1-.9-1.379l.246-1.114a1.153,1.153,0,0,1,1.348-.882,28.171,28.171,0,0,0,3.531.489h.007a8.929,8.929,0,0,0,3.819-.373,1.736,1.736,0,0,0,1.137-1.23v-.006a2.625,2.625,0,0,0,.054-.4,3.83,3.83,0,0,0,0-.548,1.389,1.389,0,0,0-.47-1.051,3.151,3.151,0,0,0-1.68-.478,9.247,9.247,0,0,0-1.329.019,13.677,13.677,0,0,1-2.073.015,6.61,6.61,0,0,1-3.524-1.171,4.311,4.311,0,0,1-1.752-3.256,5.941,5.941,0,0,1,0-.909,6.526,6.526,0,0,1,.174-1.084,5.353,5.353,0,0,1,3.311-3.77,11.876,11.876,0,0,1,5.459-.658,27.565,27.565,0,0,1,3.742.57,1.152,1.152,0,0,1,.875,1.4l-.274,1.112a1.153,1.153,0,0,1-1.362.852" transform="translate(-193.364 -433.381)" fill="#62a3d4"/>
        <path id="Path_156" data-name="Path 156" d="M228.293,435.662v15.118a1.155,1.155,0,0,1-1.153,1.153h-1.153a1.155,1.155,0,0,1-1.152-1.153V435.662a1.155,1.155,0,0,1,1.152-1.153h1.153a1.155,1.155,0,0,1,1.153,1.153" transform="translate(-209.611 -433.963)" fill="#62a3d4"/>
        <path id="Path_157" data-name="Path 157" d="M244,451.18h-7.021a2.709,2.709,0,0,0,1.228,1.263,10.414,10.414,0,0,0,5.411.659,1.153,1.153,0,0,1,1.232,1.023l.125,1.139a1.153,1.153,0,0,1-1.061,1.276A13.672,13.672,0,0,1,236.6,455.5a6.231,6.231,0,0,1-3.4-6.006v-.095c.2-3.577,1.951-5.681,4.073-6.546a6.069,6.069,0,0,1,2.823-.421,6.242,6.242,0,0,1,5.616,7.233l-.062.507a1.148,1.148,0,0,1-1.145,1.012Zm-6.967-3.458h5.127a2.637,2.637,0,0,0-1.154-1.466,2.833,2.833,0,0,0-1.2-.384,2.647,2.647,0,0,0-1.229.178A2.88,2.88,0,0,0,237.033,447.722Z" transform="translate(-213.931 -438.039)" fill="#62a3d4"/>
        <path id="Path_158" data-name="Path 158" d="M270.561,451.18H263.54a2.709,2.709,0,0,0,1.228,1.263,10.414,10.414,0,0,0,5.411.659,1.152,1.152,0,0,1,1.231,1.023l.126,1.139a1.153,1.153,0,0,1-1.061,1.276,13.675,13.675,0,0,1-7.315-1.045,6.23,6.23,0,0,1-3.4-6.006v-.095c.2-3.577,1.95-5.681,4.073-6.546a6.068,6.068,0,0,1,2.823-.421,6.242,6.242,0,0,1,5.616,7.233l-.062.507a1.147,1.147,0,0,1-1.144,1.012Zm-6.967-3.458h5.126a2.639,2.639,0,0,0-1.153-1.466,2.833,2.833,0,0,0-1.2-.384,2.649,2.649,0,0,0-1.229.178A2.88,2.88,0,0,0,263.594,447.722Z" transform="translate(-227.643 -438.039)" fill="#62a3d4"/>
        <path id="Path_159" data-name="Path 159" d="M289.927,446.088v6.068a7.84,7.84,0,0,0,2.425.707,3.266,3.266,0,0,0,1.623-.189,2.166,2.166,0,0,0,1.03-.964,5.47,5.47,0,0,0,.59-2.145,4.617,4.617,0,0,0-.114-1.755,2.285,2.285,0,0,0-.9-1.273,4.106,4.106,0,0,0-1.923-.619,9.5,9.5,0,0,0-2.727.171m-3.459,13.206V444.312a1.14,1.14,0,0,1,.828-1.107l.416-.121a14.086,14.086,0,0,1,5.281-.6,7.5,7.5,0,0,1,3.544,1.214,5.645,5.645,0,0,1,2.253,3.138,7.991,7.991,0,0,1,.236,3.066A8.837,8.837,0,0,1,298,453.4a5.545,5.545,0,0,1-2.651,2.436,6.652,6.652,0,0,1-3.339.459,10.159,10.159,0,0,1-2.087-.449v3.449a1.156,1.156,0,0,1-1.153,1.153h-1.152A1.156,1.156,0,0,1,286.468,459.294Z" transform="translate(-241.429 -438.054)" fill="#62a3d4"/>
        <path id="Path_160" data-name="Path 160" d="M333.528,438.088c-3.841-.563-6.449.526-7.844,2.247a5.478,5.478,0,0,0-1.225,3.411,5.334,5.334,0,0,0,1.178,3.395c1.365,1.69,3.953,2.754,7.837,2.2a1.152,1.152,0,0,1,1.292.91l.228,1.121a1.154,1.154,0,0,1-.964,1.371c-5.311.773-9.011-.88-11.082-3.445a8.75,8.75,0,0,1-1.935-5.57,8.941,8.941,0,0,1,1.995-5.572c2.1-2.6,5.83-4.273,11.1-3.477a1.152,1.152,0,0,1,.955,1.379l-.238,1.124a1.152,1.152,0,0,1-1.3.9" transform="translate(-259.263 -433.95)" fill="#62a3d4"/>
        <path id="Path_161" data-name="Path 161" d="M358.719,446.7a3.132,3.132,0,0,0-4.613,0,3.8,3.8,0,0,0,0,5.126,3.131,3.131,0,0,0,4.613,0,3.8,3.8,0,0,0,0-5.126m-2.307-4.472a6.6,6.6,0,0,1,4.806,2.095,7.226,7.226,0,0,1,0,9.881,6.561,6.561,0,0,1-9.611,0,7.226,7.226,0,0,1,0-9.881A6.6,6.6,0,0,1,356.413,442.226Z" transform="translate(-274.048 -437.947)" fill="#62a3d4"/>
        <path id="Path_162" data-name="Path 162" d="M421.074,435.662v15.118a1.155,1.155,0,0,1-1.152,1.153h-1.153a1.156,1.156,0,0,1-1.153-1.153V435.662a1.156,1.156,0,0,1,1.153-1.153h1.153a1.155,1.155,0,0,1,1.152,1.153" transform="translate(-309.133 -433.963)" fill="#62a3d4"/>
      </g>
    </g>
  </g>
</svg>
